<?xml version="1.0" encoding="UTF-8"?>
<svg width="64px" height="64px" viewBox="0 0 64 64" version="1.1" xmlns="http://www.w3.org/2000/svg" xmlns:xlink="http://www.w3.org/1999/xlink" style="background: #FFF1E7;">
    <!-- Generator: Sketch 49.1 (51147) - http://www.bohemiancoding.com/sketch -->
    <title>replocate-app-icon-small</title>
    <desc>Created with Sketch.</desc>
    <defs></defs>
    <g id="replocate-app-icon-small" stroke="none" stroke-width="1" fill="none" fill-rule="evenodd">
        <g id="Flag-Map" transform="translate(9.077278, 10.176409)">
            <polygon id="Red" fill="#FF676C" points="22.9845433 5.23866137 33.9538495 0.641648403 45.4058288 5.23866137 45.4058288 42.1832495 34.1951861 37.6172354 22.9845433 42.1832495 11.690114 37.6172354 0.53099609 42.1832495 0.53099609 5.23866137 11.690114 0.641648403"></polygon>
            <g id="White-Stripes" transform="translate(0.320598, 0.587572)" fill="#FFFFFF">
                <polygon id="Path-3" points="0.12556988 35.3881262 11.4024819 30.7579783 22.5706405 35.3881262 33.8622295 30.7579783 45.0457868 35.3881262 45.0457868 29.4445597 33.8622295 24.7332741 22.5856784 29.1932089 11.4024819 24.7332741 0.12556988 29.1932089"></polygon>
                <polygon id="Path-3-Copy" points="0.12556988 22.902218 11.4024819 18.2720702 22.5706405 22.902218 33.8622295 18.2720702 45.0457868 22.902218 45.0457868 16.9586516 33.8622295 12.247366 22.5856784 16.7073007 11.4024819 12.247366 0.12556988 16.7073007"></polygon>
                <polygon id="Path-3-Copy-2" points="0.12556988 10.710096 11.4024819 6.07994815 22.5706405 10.710096 33.8622295 6.07994815 45.0457868 10.710096 45.0457868 4.76652955 33.8622295 0.0552439145 22.5856784 4.51517867 11.4024819 0.0552439145 0.12556988 4.51517867"></polygon>
            </g>
            <polygon id="Blue-Field" fill="#6D82ED" points="0.436302593 5.34043557 11.6788081 0.529050548 22.8799296 5.07828101 22.8799296 29.7620399 11.6788081 25.2158962 0.436302593 29.7620399"></polygon>
            <polygon id="Shadow" fill-opacity="0.449999988" fill="#5A5972" style="mix-blend-mode: hard-light;" points="11.6252175 0.599433788 0.387077351 5.31256253 0.387077351 42.1806516 11.6252175 37.5094692"></polygon>
            <polygon id="Shadow-Copy" fill-opacity="0.449999988" fill="#5A5972" style="mix-blend-mode: hard-light;" points="34.2065526 0.641648403 22.9684125 5.35477714 22.9684125 42.2228662 34.2065526 37.5516838"></polygon>
            <g id="Map" transform="translate(0.092047, 0.133200)" stroke="#5A5972" stroke-linecap="round" stroke-width="3">
                <path d="M0.390620922,5.2143888 L0.390620922,42.0307799" id="Line"></path>
                <g id="Group" transform="translate(0.223511, 0.146893)">
                    <path d="M11.3505175,37.1478719 L0.167109927,41.9412669" id="Line-Copy-4"></path>
                    <path d="M11.3505175,24.8088568 L0.167109927,29.6022518" id="Line-Copy-3"></path>
                    <path d="M11.3505175,12.4698417 L0.167109927,17.2632367" id="Line-Copy-2"></path>
                    <path d="M11.3505175,0.130826611 L0.167109927,4.92422164" id="Line-Copy"></path>
                </g>
                <path d="M11.6299062,0.277405637 L11.685784,37.0937967" id="Line-Copy-5"></path>
                <g id="Group-Copy" transform="translate(17.272861, 21.208942) scale(-1, 1) translate(-17.272861, -21.208942) translate(11.509420, 0.133673)">
                    <path d="M11.3505175,37.1478719 L0.167109927,41.9412669" id="Line-Copy-4"></path>
                    <path d="M11.3505175,24.8088568 L0.167109927,29.6022518" id="Line-Copy-3"></path>
                    <path d="M11.3505175,12.4698417 L0.167109927,17.2632367" id="Line-Copy-2"></path>
                    <path d="M11.3505175,0.130826611 L0.167109927,4.92422164" id="Line-Copy"></path>
                </g>
                <path d="M22.8311732,5.2143888 L22.8311732,42.0307799" id="Line-Copy-7"></path>
                <g id="Group-Copy-3" transform="translate(22.664063, 0.146893)">
                    <path d="M11.3505175,37.1478719 L0.167109927,41.9412669" id="Line-Copy-4"></path>
                    <path d="M11.3505175,24.8088568 L0.167109927,29.6022518" id="Line-Copy-3"></path>
                    <path d="M11.3505175,12.4698417 L0.167109927,17.2632367" id="Line-Copy-2"></path>
                    <path d="M11.3505175,0.130826611 L0.167109927,4.92422164" id="Line-Copy"></path>
                </g>
                <path d="M34.0704585,0.277405637 L34.1263363,37.0937967" id="Line-Copy-6"></path>
                <g id="Group-Copy-2" transform="translate(39.713413, 21.208942) scale(-1, 1) translate(-39.713413, -21.208942) translate(33.949972, 0.133673)">
                    <path d="M11.3505175,37.1478719 L0.167109927,41.9412669" id="Line-Copy-4"></path>
                    <path d="M11.3505175,24.8088568 L0.167109927,29.6022518" id="Line-Copy-3"></path>
                    <path d="M11.3505175,12.4698417 L0.167109927,17.2632367" id="Line-Copy-2"></path>
                    <path d="M11.3505175,0.130826611 L0.167109927,4.92422164" id="Line-Copy"></path>
                </g>
                <path d="M45.3241888,5.2143888 L45.3241888,42.0307799" id="Line-Copy-8"></path>
            </g>
        </g>
    </g>
</svg>