<?xml version="1.0" encoding="UTF-8"?>
<svg width="372px" height="372px" viewBox="0 0 372 372" version="1.1" xmlns="http://www.w3.org/2000/svg" xmlns:xlink="http://www.w3.org/1999/xlink">
    <!-- Generator: Sketch 49.1 (51147) - http://www.bohemiancoding.com/sketch -->
    <title>replocate-cropped-transparent</title>
    <desc>Created with Sketch.</desc>
    <defs></defs>
    <g id="replocate-cropped-transparent" stroke="none" stroke-width="1" fill="none" fill-rule="evenodd">
        <path d="M57.509,329.902188 L51.368,329.902188 L51.368,349.912188 L45.365,349.912188 L45.365,301.612188 L57.716,301.612188 C61.6260195,301.612188 64.58149,302.47468 66.5825,304.199688 C68.58351,305.924697 69.584,308.65017 69.584,312.376188 L69.584,319.000188 C69.584,324.198214 67.5140207,327.441182 63.374,328.729188 L72.965,349.912188 L66.41,349.912188 L57.509,329.902188 Z M63.581,311.755188 C63.581,310.00718 63.178504,308.742192 62.3735,307.960188 C61.568496,307.178184 60.2920087,306.787188 58.544,306.787188 L51.368,306.787188 L51.368,324.727188 L58.544,324.727188 C60.2920087,324.727188 61.568496,324.324692 62.3735,323.519688 C63.178504,322.714684 63.581,321.438197 63.581,319.690188 L63.581,311.755188 Z M81.245,349.912188 L81.245,301.612188 L103.877,301.612188 L103.877,306.649188 L87.248,306.649188 L87.248,322.450188 L102.152,322.450188 L102.152,327.487188 L87.248,327.487188 L87.248,344.875188 L103.877,344.875188 L103.877,349.912188 L81.245,349.912188 Z M138.101,320.242188 C138.101,323.968207 137.11201,326.71668 135.134,328.487688 C133.15599,330.258697 130.235019,331.144188 126.371,331.144188 L119.885,331.144188 L119.885,349.912188 L113.882,349.912188 L113.882,301.612188 L126.233,301.612188 C130.14302,301.612188 133.09849,302.47468 135.0995,304.199688 C137.10051,305.924697 138.101,308.65017 138.101,312.376188 L138.101,320.242188 Z M132.098,311.755188 C132.098,310.00718 131.695504,308.742192 130.8905,307.960188 C130.085496,307.178184 128.809009,306.787188 127.061,306.787188 L119.885,306.787188 L119.885,325.969188 L127.061,325.969188 C128.809009,325.969188 130.085496,325.566692 130.8905,324.761688 C131.695504,323.956684 132.098,322.680197 132.098,320.932188 L132.098,311.755188 Z M147.761,349.912188 L147.761,301.612188 L153.764,301.612188 L153.764,344.668188 L169.151,344.668188 L169.151,349.912188 L147.761,349.912188 Z M202.547,338.182188 C202.547,342.092208 201.477511,345.024679 199.3385,346.979688 C197.199489,348.934698 194.12902,349.912188 190.127,349.912188 L187.781,349.912188 C183.77898,349.912188 180.708511,348.934698 178.5695,346.979688 C176.430489,345.024679 175.361,342.092208 175.361,338.182188 L175.361,313.342188 C175.361,309.432169 176.430489,306.499698 178.5695,304.544688 C180.708511,302.589679 183.77898,301.612188 187.781,301.612188 L190.127,301.612188 C194.12902,301.612188 197.199489,302.589679 199.3385,304.544688 C201.477511,306.499698 202.547,309.432169 202.547,313.342188 L202.547,338.182188 Z M196.544,312.031188 C196.544,310.605181 196.015005,309.386193 194.957,308.374188 C193.898995,307.362183 192.519009,306.856188 190.817,306.856188 L187.091,306.856188 C185.388991,306.856188 184.009005,307.362183 182.951,308.374188 C181.892995,309.386193 181.364,310.605181 181.364,312.031188 L181.364,339.493188 C181.364,340.919196 181.892995,342.138183 182.951,343.150188 C184.009005,344.162193 185.388991,344.668188 187.091,344.668188 L190.817,344.668188 C192.519009,344.668188 193.898995,344.162193 194.957,343.150188 C196.015005,342.138183 196.544,340.919196 196.544,339.493188 L196.544,312.031188 Z M225.317,349.912188 C221.31498,349.912188 218.244511,348.934698 216.1055,346.979688 C213.966489,345.024679 212.897,342.092208 212.897,338.182188 L212.897,313.342188 C212.897,309.432169 213.966489,306.499698 216.1055,304.544688 C218.244511,302.589679 221.31498,301.612188 225.317,301.612188 L233.735,301.612188 L233.735,306.856188 L224.627,306.856188 C222.924991,306.856188 221.545005,307.362183 220.487,308.374188 C219.428995,309.386193 218.9,310.605181 218.9,312.031188 L218.9,339.493188 C218.9,340.919196 219.428995,342.138183 220.487,343.150188 C221.545005,344.162193 222.924991,344.668188 224.627,344.668188 L233.735,344.668188 L233.735,349.912188 L225.317,349.912188 Z M263.129,349.912188 L260.507,337.699188 L247.052,337.699188 L244.361,349.912188 L238.22,349.912188 L249.881,301.612188 L257.816,301.612188 L269.27,349.912188 L263.129,349.912188 Z M253.745,306.166188 L248.156,332.524188 L259.403,332.524188 L253.745,306.166188 Z M288.659,306.856188 L288.659,349.912188 L282.656,349.912188 L282.656,306.856188 L272.03,306.856188 L272.03,301.612188 L299.285,301.612188 L299.285,306.856188 L288.659,306.856188 Z M306.185,349.912188 L306.185,301.612188 L328.817,301.612188 L328.817,306.649188 L312.188,306.649188 L312.188,322.450188 L327.092,322.450188 L327.092,327.487188 L312.188,327.487188 L312.188,344.875188 L328.817,344.875188 L328.817,349.912188 L306.185,349.912188 Z" id="REPLOCATE-Copy" fill="#5A5972"></path>
        <g id="Flag-Map" transform="translate(43.500000, 6.087812)">
            <polygon id="Red" fill="#FF676C" points="143.385662 32.6806113 211.816049 4.00282831 283.257523 32.6806113 283.257523 263.15394 213.321592 234.669539 143.385662 263.15394 72.9270409 234.669539 3.31254028 263.15394 3.31254028 32.6806113 72.9270409 4.00282831"></polygon>
            <g id="White-Stripes" transform="translate(2.000000, 3.665482)" fill="#FFFFFF">
                <polygon id="Path-3" points="0.783349058 220.763572 71.1326908 191.879082 140.803591 220.763572 211.244492 191.879082 281.011454 220.763572 281.011454 183.685515 211.244492 154.294859 140.897402 182.1175 71.1326908 154.294859 0.783349058 182.1175"></polygon>
                <polygon id="Path-3-Copy" points="0.783349058 142.872087 71.1326908 113.987598 140.803591 142.872087 211.244492 113.987598 281.011454 142.872087 281.011454 105.794031 211.244492 76.4033746 140.897402 104.226015 71.1326908 76.4033746 0.783349058 104.226015"></polygon>
                <polygon id="Path-3-Copy-2" points="0.783349058 66.8133437 71.1326908 37.928854 140.803591 66.8133437 211.244492 37.928854 281.011454 66.8133437 281.011454 29.735287 211.244492 0.34463096 140.897402 28.1672719 71.1326908 0.34463096 0.783349058 28.1672719"></polygon>
            </g>
            <polygon id="Blue-Field" fill="#6D82ED" points="2.72180896 33.3155145 72.8565109 3.30040331 142.733045 31.6801022 142.733045 185.666068 72.8565109 157.305625 2.72180896 185.666068"></polygon>
            <polygon id="Shadow" fill-opacity="0.449999988" fill="#5A5972" style="mix-blend-mode: hard-light;" points="72.5221935 3.7394787 2.41472459 33.1416327 2.41472459 263.137733 72.5221935 233.997255"></polygon>
            <polygon id="Shadow-Copy" fill-opacity="0.449999988" fill="#5A5972" style="mix-blend-mode: hard-light;" points="213.392501 4.00282831 143.285032 33.4049823 143.285032 263.401083 213.392501 234.260605"></polygon>
            <g id="Map" transform="translate(0.574219, 0.830951)" stroke="#5A5972" stroke-linecap="round" stroke-width="6">
                <path d="M2.43683064,32.5291905 L2.43683064,262.202781" id="Line"></path>
                <g id="Group" transform="translate(1.394340, 0.916370)">
                    <path d="M70.8085184,231.741484 L1.04249047,261.644368" id="Line-Copy-4"></path>
                    <path d="M70.8085184,154.76637 L1.04249047,184.669254" id="Line-Copy-3"></path>
                    <path d="M70.8085184,77.7912564 L1.04249047,107.69414" id="Line-Copy-2"></path>
                    <path d="M70.8085184,0.816142392 L1.04249047,30.7190257" id="Line-Copy"></path>
                </g>
                <path d="M72.5514436,1.73055389 L72.9000287,231.404144" id="Line-Copy-5"></path>
                <g id="Group-Copy" transform="translate(107.708547, 132.333900) scale(-1, 1) translate(-107.708547, -132.333900) translate(71.708547, 0.833900)">
                    <path d="M70.8085184,231.741484 L1.04249047,261.644368" id="Line-Copy-4"></path>
                    <path d="M70.8085184,154.76637 L1.04249047,184.669254" id="Line-Copy-3"></path>
                    <path d="M70.8085184,77.7912564 L1.04249047,107.69414" id="Line-Copy-2"></path>
                    <path d="M70.8085184,0.816142392 L1.04249047,30.7190257" id="Line-Copy"></path>
                </g>
                <path d="M142.428885,32.5291905 L142.428885,262.202781" id="Line-Copy-7"></path>
                <g id="Group-Copy-3" transform="translate(141.386394, 0.916370)">
                    <path d="M70.8085184,231.741484 L1.04249047,261.644368" id="Line-Copy-4"></path>
                    <path d="M70.8085184,154.76637 L1.04249047,184.669254" id="Line-Copy-3"></path>
                    <path d="M70.8085184,77.7912564 L1.04249047,107.69414" id="Line-Copy-2"></path>
                    <path d="M70.8085184,0.816142392 L1.04249047,30.7190257" id="Line-Copy"></path>
                </g>
                <path d="M212.543498,1.73055389 L212.892083,231.404144" id="Line-Copy-6"></path>
                <g id="Group-Copy-2" transform="translate(247.700601, 132.333900) scale(-1, 1) translate(-247.700601, -132.333900) translate(211.700601, 0.833900)">
                    <path d="M70.8085184,231.741484 L1.04249047,261.644368" id="Line-Copy-4"></path>
                    <path d="M70.8085184,154.76637 L1.04249047,184.669254" id="Line-Copy-3"></path>
                    <path d="M70.8085184,77.7912564 L1.04249047,107.69414" id="Line-Copy-2"></path>
                    <path d="M70.8085184,0.816142392 L1.04249047,30.7190257" id="Line-Copy"></path>
                </g>
                <path d="M282.748223,32.5291905 L282.748223,262.202781" id="Line-Copy-8"></path>
            </g>
        </g>
        <path d="M57.509,329.902188 L51.368,329.902188 L51.368,349.912188 L45.365,349.912188 L45.365,301.612188 L57.716,301.612188 C61.6260195,301.612188 64.58149,302.47468 66.5825,304.199688 C68.58351,305.924697 69.584,308.65017 69.584,312.376188 L69.584,319.000188 C69.584,324.198214 67.5140207,327.441182 63.374,328.729188 L72.965,349.912188 L66.41,349.912188 L57.509,329.902188 Z M63.581,311.755188 C63.581,310.00718 63.178504,308.742192 62.3735,307.960188 C61.568496,307.178184 60.2920087,306.787188 58.544,306.787188 L51.368,306.787188 L51.368,324.727188 L58.544,324.727188 C60.2920087,324.727188 61.568496,324.324692 62.3735,323.519688 C63.178504,322.714684 63.581,321.438197 63.581,319.690188 L63.581,311.755188 Z M81.245,349.912188 L81.245,301.612188 L103.877,301.612188 L103.877,306.649188 L87.248,306.649188 L87.248,322.450188 L102.152,322.450188 L102.152,327.487188 L87.248,327.487188 L87.248,344.875188 L103.877,344.875188 L103.877,349.912188 L81.245,349.912188 Z M138.101,320.242188 C138.101,323.968207 137.11201,326.71668 135.134,328.487688 C133.15599,330.258697 130.235019,331.144188 126.371,331.144188 L119.885,331.144188 L119.885,349.912188 L113.882,349.912188 L113.882,301.612188 L126.233,301.612188 C130.14302,301.612188 133.09849,302.47468 135.0995,304.199688 C137.10051,305.924697 138.101,308.65017 138.101,312.376188 L138.101,320.242188 Z M132.098,311.755188 C132.098,310.00718 131.695504,308.742192 130.8905,307.960188 C130.085496,307.178184 128.809009,306.787188 127.061,306.787188 L119.885,306.787188 L119.885,325.969188 L127.061,325.969188 C128.809009,325.969188 130.085496,325.566692 130.8905,324.761688 C131.695504,323.956684 132.098,322.680197 132.098,320.932188 L132.098,311.755188 Z M147.761,349.912188 L147.761,301.612188 L153.764,301.612188 L153.764,344.668188 L169.151,344.668188 L169.151,349.912188 L147.761,349.912188 Z M202.547,338.182188 C202.547,342.092208 201.477511,345.024679 199.3385,346.979688 C197.199489,348.934698 194.12902,349.912188 190.127,349.912188 L187.781,349.912188 C183.77898,349.912188 180.708511,348.934698 178.5695,346.979688 C176.430489,345.024679 175.361,342.092208 175.361,338.182188 L175.361,313.342188 C175.361,309.432169 176.430489,306.499698 178.5695,304.544688 C180.708511,302.589679 183.77898,301.612188 187.781,301.612188 L190.127,301.612188 C194.12902,301.612188 197.199489,302.589679 199.3385,304.544688 C201.477511,306.499698 202.547,309.432169 202.547,313.342188 L202.547,338.182188 Z M196.544,312.031188 C196.544,310.605181 196.015005,309.386193 194.957,308.374188 C193.898995,307.362183 192.519009,306.856188 190.817,306.856188 L187.091,306.856188 C185.388991,306.856188 184.009005,307.362183 182.951,308.374188 C181.892995,309.386193 181.364,310.605181 181.364,312.031188 L181.364,339.493188 C181.364,340.919196 181.892995,342.138183 182.951,343.150188 C184.009005,344.162193 185.388991,344.668188 187.091,344.668188 L190.817,344.668188 C192.519009,344.668188 193.898995,344.162193 194.957,343.150188 C196.015005,342.138183 196.544,340.919196 196.544,339.493188 L196.544,312.031188 Z M225.317,349.912188 C221.31498,349.912188 218.244511,348.934698 216.1055,346.979688 C213.966489,345.024679 212.897,342.092208 212.897,338.182188 L212.897,313.342188 C212.897,309.432169 213.966489,306.499698 216.1055,304.544688 C218.244511,302.589679 221.31498,301.612188 225.317,301.612188 L233.735,301.612188 L233.735,306.856188 L224.627,306.856188 C222.924991,306.856188 221.545005,307.362183 220.487,308.374188 C219.428995,309.386193 218.9,310.605181 218.9,312.031188 L218.9,339.493188 C218.9,340.919196 219.428995,342.138183 220.487,343.150188 C221.545005,344.162193 222.924991,344.668188 224.627,344.668188 L233.735,344.668188 L233.735,349.912188 L225.317,349.912188 Z M263.129,349.912188 L260.507,337.699188 L247.052,337.699188 L244.361,349.912188 L238.22,349.912188 L249.881,301.612188 L257.816,301.612188 L269.27,349.912188 L263.129,349.912188 Z M253.745,306.166188 L248.156,332.524188 L259.403,332.524188 L253.745,306.166188 Z M288.659,306.856188 L288.659,349.912188 L282.656,349.912188 L282.656,306.856188 L272.03,306.856188 L272.03,301.612188 L299.285,301.612188 L299.285,306.856188 L288.659,306.856188 Z M306.185,349.912188 L306.185,301.612188 L328.817,301.612188 L328.817,306.649188 L312.188,306.649188 L312.188,322.450188 L327.092,322.450188 L327.092,327.487188 L312.188,327.487188 L312.188,344.875188 L328.817,344.875188 L328.817,349.912188 L306.185,349.912188 Z" id="REPLOCATE-Copy" fill="#5A5972"></path>
    </g>
</svg>