<?xml version="1.0" encoding="UTF-8"?>
<svg width="128px" height="128px" viewBox="0 0 128 128" version="1.1" xmlns="http://www.w3.org/2000/svg" xmlns:xlink="http://www.w3.org/1999/xlink" style="background: #FFF1E7;">
    <!-- Generator: Sketch 49.1 (51147) - http://www.bohemiancoding.com/sketch -->
    <title>replocate-app-icon-medium</title>
    <desc>Created with Sketch.</desc>
    <defs></defs>
    <g id="replocate-app-icon-medium" stroke="none" stroke-width="1" fill="none" fill-rule="evenodd">
        <g id="Flag-Map" transform="translate(18.154555, 20.352819)">
            <polygon id="Red" fill="#FF676C" points="45.9690867 10.4773227 67.9076989 1.28329681 90.8116577 10.4773227 90.8116577 84.366499 68.3903722 75.2344707 45.9690867 84.366499 23.380228 75.2344707 1.06199218 84.366499 1.06199218 10.4773227 23.380228 1.28329681"></polygon>
            <g id="White-Stripes" transform="translate(0.641195, 1.175144)" fill="#FFFFFF">
                <polygon id="Path-3" points="0.251139761 70.7762523 22.8049639 61.5159567 45.1412811 70.7762523 67.724459 61.5159567 90.0915737 70.7762523 90.0915737 58.8891195 67.724459 49.4665482 45.1713567 58.3864177 22.8049639 49.4665482 0.251139761 58.3864177"></polygon>
                <polygon id="Path-3-Copy" points="0.251139761 45.804436 22.8049639 36.5441404 45.1412811 45.804436 67.724459 36.5441404 90.0915737 45.804436 90.0915737 33.9173032 67.724459 24.494732 45.1713567 33.4146015 22.8049639 24.494732 0.251139761 33.4146015"></polygon>
                <polygon id="Path-3-Copy-2" points="0.251139761 21.4201919 22.8049639 12.1598963 45.1412811 21.4201919 67.724459 12.1598963 90.0915737 21.4201919 90.0915737 9.5330591 67.724459 0.110487829 45.1713567 9.03035734 22.8049639 0.110487829 0.251139761 9.03035734"></polygon>
            </g>
            <polygon id="Blue-Field" fill="#6D82ED" points="0.872605185 10.6808711 23.3576163 1.0581011 45.7598593 10.156562 45.7598593 59.5240799 23.3576163 50.4317925 0.872605185 59.5240799"></polygon>
            <polygon id="Shadow" fill-opacity="0.449999988" fill="#5A5972" style="mix-blend-mode: hard-light;" points="23.250435 1.19886758 0.774154702 10.6251251 0.774154702 84.3613031 23.250435 75.0189383"></polygon>
            <polygon id="Shadow-Copy" fill-opacity="0.449999988" fill="#5A5972" style="mix-blend-mode: hard-light;" points="68.4131052 1.28329681 45.9368249 10.7095543 45.9368249 84.4457324 68.4131052 75.1033675"></polygon>
            <g id="Map" transform="translate(0.184093, 0.266401)" stroke="#5A5972" stroke-linecap="round" stroke-width="4">
                <path d="M0.781241845,10.4287776 L0.781241845,84.0615598" id="Line"></path>
                <g id="Group" transform="translate(0.447022, 0.293786)">
                    <path d="M22.701035,74.2957438 L0.334219854,83.8825339" id="Line-Copy-4"></path>
                    <path d="M22.701035,49.6177136 L0.334219854,59.2045037" id="Line-Copy-3"></path>
                    <path d="M22.701035,24.9396834 L0.334219854,34.5264735" id="Line-Copy-2"></path>
                    <path d="M22.701035,0.261653222 L0.334219854,9.84844329" id="Line-Copy"></path>
                </g>
                <path d="M23.2598125,0.554811274 L23.371568,74.1875934" id="Line-Copy-5"></path>
                <g id="Group-Copy" transform="translate(34.545721, 42.417884) scale(-1, 1) translate(-34.545721, -42.417884) translate(23.018840, 0.267346)">
                    <path d="M22.701035,74.2957438 L0.334219854,83.8825339" id="Line-Copy-4"></path>
                    <path d="M22.701035,49.6177136 L0.334219854,59.2045037" id="Line-Copy-3"></path>
                    <path d="M22.701035,24.9396834 L0.334219854,34.5264735" id="Line-Copy-2"></path>
                    <path d="M22.701035,0.261653222 L0.334219854,9.84844329" id="Line-Copy"></path>
                </g>
                <path d="M45.6623464,10.4287776 L45.6623464,84.0615598" id="Line-Copy-7"></path>
                <g id="Group-Copy-3" transform="translate(45.328127, 0.293786)">
                    <path d="M22.701035,74.2957438 L0.334219854,83.8825339" id="Line-Copy-4"></path>
                    <path d="M22.701035,49.6177136 L0.334219854,59.2045037" id="Line-Copy-3"></path>
                    <path d="M22.701035,24.9396834 L0.334219854,34.5264735" id="Line-Copy-2"></path>
                    <path d="M22.701035,0.261653222 L0.334219854,9.84844329" id="Line-Copy"></path>
                </g>
                <path d="M68.140917,0.554811274 L68.2526725,74.1875934" id="Line-Copy-6"></path>
                <g id="Group-Copy-2" transform="translate(79.426826, 42.417884) scale(-1, 1) translate(-79.426826, -42.417884) translate(67.899944, 0.267346)">
                    <path d="M22.701035,74.2957438 L0.334219854,83.8825339" id="Line-Copy-4"></path>
                    <path d="M22.701035,49.6177136 L0.334219854,59.2045037" id="Line-Copy-3"></path>
                    <path d="M22.701035,24.9396834 L0.334219854,34.5264735" id="Line-Copy-2"></path>
                    <path d="M22.701035,0.261653222 L0.334219854,9.84844329" id="Line-Copy"></path>
                </g>
                <path d="M90.6483775,10.4287776 L90.6483775,84.0615598" id="Line-Copy-8"></path>
            </g>
        </g>
    </g>
</svg>