<?xml version="1.0" encoding="UTF-8"?>
<svg width="607px" height="607px" viewBox="0 0 607 607" version="1.1" xmlns="http://www.w3.org/2000/svg" xmlns:xlink="http://www.w3.org/1999/xlink" style="background: #FFF1E7;">
    <!-- Generator: Sketch 49.1 (51147) - http://www.bohemiancoding.com/sketch -->
    <title>replocate-uncropped</title>
    <desc>Created with Sketch.</desc>
    <defs></defs>
    <g id="replocate-uncropped" stroke="none" stroke-width="1" fill="none" fill-rule="evenodd">
        <path d="M174.509,446.902188 L168.368,446.902188 L168.368,466.912188 L162.365,466.912188 L162.365,418.612188 L174.716,418.612188 C178.62602,418.612188 181.58149,419.47468 183.5825,421.199688 C185.58351,422.924697 186.584,425.65017 186.584,429.376188 L186.584,436.000188 C186.584,441.198214 184.514021,444.441182 180.374,445.729188 L189.965,466.912188 L183.41,466.912188 L174.509,446.902188 Z M180.581,428.755188 C180.581,427.00718 180.178504,425.742192 179.3735,424.960188 C178.568496,424.178184 177.292009,423.787188 175.544,423.787188 L168.368,423.787188 L168.368,441.727188 L175.544,441.727188 C177.292009,441.727188 178.568496,441.324692 179.3735,440.519688 C180.178504,439.714684 180.581,438.438197 180.581,436.690188 L180.581,428.755188 Z M198.245,466.912188 L198.245,418.612188 L220.877,418.612188 L220.877,423.649188 L204.248,423.649188 L204.248,439.450188 L219.152,439.450188 L219.152,444.487188 L204.248,444.487188 L204.248,461.875188 L220.877,461.875188 L220.877,466.912188 L198.245,466.912188 Z M255.101,437.242188 C255.101,440.968207 254.11201,443.71668 252.134,445.487688 C250.15599,447.258697 247.235019,448.144188 243.371,448.144188 L236.885,448.144188 L236.885,466.912188 L230.882,466.912188 L230.882,418.612188 L243.233,418.612188 C247.14302,418.612188 250.09849,419.47468 252.0995,421.199688 C254.10051,422.924697 255.101,425.65017 255.101,429.376188 L255.101,437.242188 Z M249.098,428.755188 C249.098,427.00718 248.695504,425.742192 247.8905,424.960188 C247.085496,424.178184 245.809009,423.787188 244.061,423.787188 L236.885,423.787188 L236.885,442.969188 L244.061,442.969188 C245.809009,442.969188 247.085496,442.566692 247.8905,441.761688 C248.695504,440.956684 249.098,439.680197 249.098,437.932188 L249.098,428.755188 Z M264.761,466.912188 L264.761,418.612188 L270.764,418.612188 L270.764,461.668188 L286.151,461.668188 L286.151,466.912188 L264.761,466.912188 Z M319.547,455.182188 C319.547,459.092208 318.477511,462.024679 316.3385,463.979688 C314.199489,465.934698 311.12902,466.912188 307.127,466.912188 L304.781,466.912188 C300.77898,466.912188 297.708511,465.934698 295.5695,463.979688 C293.430489,462.024679 292.361,459.092208 292.361,455.182188 L292.361,430.342188 C292.361,426.432169 293.430489,423.499698 295.5695,421.544688 C297.708511,419.589679 300.77898,418.612188 304.781,418.612188 L307.127,418.612188 C311.12902,418.612188 314.199489,419.589679 316.3385,421.544688 C318.477511,423.499698 319.547,426.432169 319.547,430.342188 L319.547,455.182188 Z M313.544,429.031188 C313.544,427.605181 313.015005,426.386193 311.957,425.374188 C310.898995,424.362183 309.519009,423.856188 307.817,423.856188 L304.091,423.856188 C302.388991,423.856188 301.009005,424.362183 299.951,425.374188 C298.892995,426.386193 298.364,427.605181 298.364,429.031188 L298.364,456.493188 C298.364,457.919196 298.892995,459.138183 299.951,460.150188 C301.009005,461.162193 302.388991,461.668188 304.091,461.668188 L307.817,461.668188 C309.519009,461.668188 310.898995,461.162193 311.957,460.150188 C313.015005,459.138183 313.544,457.919196 313.544,456.493188 L313.544,429.031188 Z M342.317,466.912188 C338.31498,466.912188 335.244511,465.934698 333.1055,463.979688 C330.966489,462.024679 329.897,459.092208 329.897,455.182188 L329.897,430.342188 C329.897,426.432169 330.966489,423.499698 333.1055,421.544688 C335.244511,419.589679 338.31498,418.612188 342.317,418.612188 L350.735,418.612188 L350.735,423.856188 L341.627,423.856188 C339.924991,423.856188 338.545005,424.362183 337.487,425.374188 C336.428995,426.386193 335.9,427.605181 335.9,429.031188 L335.9,456.493188 C335.9,457.919196 336.428995,459.138183 337.487,460.150188 C338.545005,461.162193 339.924991,461.668188 341.627,461.668188 L350.735,461.668188 L350.735,466.912188 L342.317,466.912188 Z M380.129,466.912188 L377.507,454.699188 L364.052,454.699188 L361.361,466.912188 L355.22,466.912188 L366.881,418.612188 L374.816,418.612188 L386.27,466.912188 L380.129,466.912188 Z M370.745,423.166188 L365.156,449.524188 L376.403,449.524188 L370.745,423.166188 Z M405.659,423.856188 L405.659,466.912188 L399.656,466.912188 L399.656,423.856188 L389.03,423.856188 L389.03,418.612188 L416.285,418.612188 L416.285,423.856188 L405.659,423.856188 Z M423.185,466.912188 L423.185,418.612188 L445.817,418.612188 L445.817,423.649188 L429.188,423.649188 L429.188,439.450188 L444.092,439.450188 L444.092,444.487188 L429.188,444.487188 L429.188,461.875188 L445.817,461.875188 L445.817,466.912188 L423.185,466.912188 Z" id="REPLOCATE-Copy" fill="#5A5972"></path>
        <g id="Flag-Map" transform="translate(160.500000, 123.087812)">
            <polygon id="Red" fill="#FF676C" points="143.385662 32.6806113 211.816049 4.00282831 283.257523 32.6806113 283.257523 263.15394 213.321592 234.669539 143.385662 263.15394 72.9270409 234.669539 3.31254028 263.15394 3.31254028 32.6806113 72.9270409 4.00282831"></polygon>
            <g id="White-Stripes" transform="translate(2.000000, 3.665482)" fill="#FFFFFF">
                <polygon id="Path-3" points="0.783349058 220.763572 71.1326908 191.879082 140.803591 220.763572 211.244492 191.879082 281.011454 220.763572 281.011454 183.685515 211.244492 154.294859 140.897402 182.1175 71.1326908 154.294859 0.783349058 182.1175"></polygon>
                <polygon id="Path-3-Copy" points="0.783349058 142.872087 71.1326908 113.987598 140.803591 142.872087 211.244492 113.987598 281.011454 142.872087 281.011454 105.794031 211.244492 76.4033746 140.897402 104.226015 71.1326908 76.4033746 0.783349058 104.226015"></polygon>
                <polygon id="Path-3-Copy-2" points="0.783349058 66.8133437 71.1326908 37.928854 140.803591 66.8133437 211.244492 37.928854 281.011454 66.8133437 281.011454 29.735287 211.244492 0.34463096 140.897402 28.1672719 71.1326908 0.34463096 0.783349058 28.1672719"></polygon>
            </g>
            <polygon id="Blue-Field" fill="#6D82ED" points="2.72180896 33.3155145 72.8565109 3.30040331 142.733045 31.6801022 142.733045 185.666068 72.8565109 157.305625 2.72180896 185.666068"></polygon>
            <polygon id="Shadow" fill-opacity="0.449999988" fill="#5A5972" style="mix-blend-mode: hard-light;" points="72.5221935 3.7394787 2.41472459 33.1416327 2.41472459 263.137733 72.5221935 233.997255"></polygon>
            <polygon id="Shadow-Copy" fill-opacity="0.449999988" fill="#5A5972" style="mix-blend-mode: hard-light;" points="213.392501 4.00282831 143.285032 33.4049823 143.285032 263.401083 213.392501 234.260605"></polygon>
            <g id="Map" transform="translate(0.574219, 0.830951)" stroke="#5A5972" stroke-linecap="round" stroke-width="6">
                <path d="M2.43683064,32.5291905 L2.43683064,262.202781" id="Line"></path>
                <g id="Group" transform="translate(1.394340, 0.916370)">
                    <path d="M70.8085184,231.741484 L1.04249047,261.644368" id="Line-Copy-4"></path>
                    <path d="M70.8085184,154.76637 L1.04249047,184.669254" id="Line-Copy-3"></path>
                    <path d="M70.8085184,77.7912564 L1.04249047,107.69414" id="Line-Copy-2"></path>
                    <path d="M70.8085184,0.816142392 L1.04249047,30.7190257" id="Line-Copy"></path>
                </g>
                <path d="M72.5514436,1.73055389 L72.9000287,231.404144" id="Line-Copy-5"></path>
                <g id="Group-Copy" transform="translate(107.708547, 132.333900) scale(-1, 1) translate(-107.708547, -132.333900) translate(71.708547, 0.833900)">
                    <path d="M70.8085184,231.741484 L1.04249047,261.644368" id="Line-Copy-4"></path>
                    <path d="M70.8085184,154.76637 L1.04249047,184.669254" id="Line-Copy-3"></path>
                    <path d="M70.8085184,77.7912564 L1.04249047,107.69414" id="Line-Copy-2"></path>
                    <path d="M70.8085184,0.816142392 L1.04249047,30.7190257" id="Line-Copy"></path>
                </g>
                <path d="M142.428885,32.5291905 L142.428885,262.202781" id="Line-Copy-7"></path>
                <g id="Group-Copy-3" transform="translate(141.386394, 0.916370)">
                    <path d="M70.8085184,231.741484 L1.04249047,261.644368" id="Line-Copy-4"></path>
                    <path d="M70.8085184,154.76637 L1.04249047,184.669254" id="Line-Copy-3"></path>
                    <path d="M70.8085184,77.7912564 L1.04249047,107.69414" id="Line-Copy-2"></path>
                    <path d="M70.8085184,0.816142392 L1.04249047,30.7190257" id="Line-Copy"></path>
                </g>
                <path d="M212.543498,1.73055389 L212.892083,231.404144" id="Line-Copy-6"></path>
                <g id="Group-Copy-2" transform="translate(247.700601, 132.333900) scale(-1, 1) translate(-247.700601, -132.333900) translate(211.700601, 0.833900)">
                    <path d="M70.8085184,231.741484 L1.04249047,261.644368" id="Line-Copy-4"></path>
                    <path d="M70.8085184,154.76637 L1.04249047,184.669254" id="Line-Copy-3"></path>
                    <path d="M70.8085184,77.7912564 L1.04249047,107.69414" id="Line-Copy-2"></path>
                    <path d="M70.8085184,0.816142392 L1.04249047,30.7190257" id="Line-Copy"></path>
                </g>
                <path d="M282.748223,32.5291905 L282.748223,262.202781" id="Line-Copy-8"></path>
            </g>
        </g>
        <path d="M174.509,446.902188 L168.368,446.902188 L168.368,466.912188 L162.365,466.912188 L162.365,418.612188 L174.716,418.612188 C178.62602,418.612188 181.58149,419.47468 183.5825,421.199688 C185.58351,422.924697 186.584,425.65017 186.584,429.376188 L186.584,436.000188 C186.584,441.198214 184.514021,444.441182 180.374,445.729188 L189.965,466.912188 L183.41,466.912188 L174.509,446.902188 Z M180.581,428.755188 C180.581,427.00718 180.178504,425.742192 179.3735,424.960188 C178.568496,424.178184 177.292009,423.787188 175.544,423.787188 L168.368,423.787188 L168.368,441.727188 L175.544,441.727188 C177.292009,441.727188 178.568496,441.324692 179.3735,440.519688 C180.178504,439.714684 180.581,438.438197 180.581,436.690188 L180.581,428.755188 Z M198.245,466.912188 L198.245,418.612188 L220.877,418.612188 L220.877,423.649188 L204.248,423.649188 L204.248,439.450188 L219.152,439.450188 L219.152,444.487188 L204.248,444.487188 L204.248,461.875188 L220.877,461.875188 L220.877,466.912188 L198.245,466.912188 Z M255.101,437.242188 C255.101,440.968207 254.11201,443.71668 252.134,445.487688 C250.15599,447.258697 247.235019,448.144188 243.371,448.144188 L236.885,448.144188 L236.885,466.912188 L230.882,466.912188 L230.882,418.612188 L243.233,418.612188 C247.14302,418.612188 250.09849,419.47468 252.0995,421.199688 C254.10051,422.924697 255.101,425.65017 255.101,429.376188 L255.101,437.242188 Z M249.098,428.755188 C249.098,427.00718 248.695504,425.742192 247.8905,424.960188 C247.085496,424.178184 245.809009,423.787188 244.061,423.787188 L236.885,423.787188 L236.885,442.969188 L244.061,442.969188 C245.809009,442.969188 247.085496,442.566692 247.8905,441.761688 C248.695504,440.956684 249.098,439.680197 249.098,437.932188 L249.098,428.755188 Z M264.761,466.912188 L264.761,418.612188 L270.764,418.612188 L270.764,461.668188 L286.151,461.668188 L286.151,466.912188 L264.761,466.912188 Z M319.547,455.182188 C319.547,459.092208 318.477511,462.024679 316.3385,463.979688 C314.199489,465.934698 311.12902,466.912188 307.127,466.912188 L304.781,466.912188 C300.77898,466.912188 297.708511,465.934698 295.5695,463.979688 C293.430489,462.024679 292.361,459.092208 292.361,455.182188 L292.361,430.342188 C292.361,426.432169 293.430489,423.499698 295.5695,421.544688 C297.708511,419.589679 300.77898,418.612188 304.781,418.612188 L307.127,418.612188 C311.12902,418.612188 314.199489,419.589679 316.3385,421.544688 C318.477511,423.499698 319.547,426.432169 319.547,430.342188 L319.547,455.182188 Z M313.544,429.031188 C313.544,427.605181 313.015005,426.386193 311.957,425.374188 C310.898995,424.362183 309.519009,423.856188 307.817,423.856188 L304.091,423.856188 C302.388991,423.856188 301.009005,424.362183 299.951,425.374188 C298.892995,426.386193 298.364,427.605181 298.364,429.031188 L298.364,456.493188 C298.364,457.919196 298.892995,459.138183 299.951,460.150188 C301.009005,461.162193 302.388991,461.668188 304.091,461.668188 L307.817,461.668188 C309.519009,461.668188 310.898995,461.162193 311.957,460.150188 C313.015005,459.138183 313.544,457.919196 313.544,456.493188 L313.544,429.031188 Z M342.317,466.912188 C338.31498,466.912188 335.244511,465.934698 333.1055,463.979688 C330.966489,462.024679 329.897,459.092208 329.897,455.182188 L329.897,430.342188 C329.897,426.432169 330.966489,423.499698 333.1055,421.544688 C335.244511,419.589679 338.31498,418.612188 342.317,418.612188 L350.735,418.612188 L350.735,423.856188 L341.627,423.856188 C339.924991,423.856188 338.545005,424.362183 337.487,425.374188 C336.428995,426.386193 335.9,427.605181 335.9,429.031188 L335.9,456.493188 C335.9,457.919196 336.428995,459.138183 337.487,460.150188 C338.545005,461.162193 339.924991,461.668188 341.627,461.668188 L350.735,461.668188 L350.735,466.912188 L342.317,466.912188 Z M380.129,466.912188 L377.507,454.699188 L364.052,454.699188 L361.361,466.912188 L355.22,466.912188 L366.881,418.612188 L374.816,418.612188 L386.27,466.912188 L380.129,466.912188 Z M370.745,423.166188 L365.156,449.524188 L376.403,449.524188 L370.745,423.166188 Z M405.659,423.856188 L405.659,466.912188 L399.656,466.912188 L399.656,423.856188 L389.03,423.856188 L389.03,418.612188 L416.285,418.612188 L416.285,423.856188 L405.659,423.856188 Z M423.185,466.912188 L423.185,418.612188 L445.817,418.612188 L445.817,423.649188 L429.188,423.649188 L429.188,439.450188 L444.092,439.450188 L444.092,444.487188 L429.188,444.487188 L429.188,461.875188 L445.817,461.875188 L445.817,466.912188 L423.185,466.912188 Z" id="REPLOCATE-Copy" fill="#5A5972"></path>
    </g>
</svg>